<svg id="Layer_1" data-name="Layer 1" xmlns="http://www.w3.org/2000/svg" width="812.29" height="668.74" viewBox="0 0 812.29 668.74"><title>CorkMap_Unselected</title><path d="M715.7,329.26a2.85,2.85,0,0,0-1.44,2.1c-.35,2.79-1.24,7.36.41,10.64,9.18,18.25,9.75,37.8,9.7,57.34,0,8.44,3.3,10.22,10.69,11,21.21,2.23,42.33,5.44,63.53,7.85,8.88,1,11.09,5.18,6.63,12.33-6.12,9.78-7.78,18.71,1.18,27.83,1.6,1.62,1.48,5.08,1.86,7.74.78,5.53.14,11.63,2.31,16.5,3.06,6.85,1.84,11.56-2.18,17.46-6.13,9-11.21,18.72-16.26,28.38a15.84,15.84,0,0,0-1.69,9.6c1.52,7.88-1.83,10.27-8.87,9.23-5.86-.86-9.21.59-9.48,7.29a9.46,9.46,0,0,1-3.76,6.64c-12.86,8.15-25.67,14.58-42.35,10.21-7.42-1.94-16.49,2.22-24.74,4-.76.16-2.81,13.76-4.08,23.76a2.85,2.85,0,0,1-4.44,2C675.61,589.29,660.87,579,646,569c-10.67-7.19-31.28-.68-37,11-3.42,6.95-7.43,13.61-11.27,20.34a2.83,2.83,0,0,1-3.94,1c-20.84-12.6-41.83-9.46-61.73-3.62-8.72,2.56-14.54,13.52-17.22,23.65-2.8,10.6-8.2,17.62-18.16,24.08-13.72,8.9-32.09,8.29-43,22.33-1,1.36-6.68,1.26-8.23-.21-8-7.61-15.45-15.78-23-23.8-.94-1-10.72,1.16-13-.51-3.25-2.35-2.42-9.68-5.25-13.45-6.57-8.79-14.43-16.61-21.43-25.1-2.33-2.82-3.45-6.6-5.4-9.78-2.83-4.62-6.44-8.84-8.78-13.69-7.1-14.69-14.12-29.45-20.28-44.54-1.28-3.12,1.27-7.8-.52-10.38l-20.4-21.66a2.84,2.84,0,0,0-4.77,1.06c-1.15,3.54-2.26,7-3.21,9.91a2.84,2.84,0,0,1-3.11,1.94c-14.05-2-27.13-4.13-40.28-5.5-11.33-1.17-22.82-.79-34.1-2.23-2.89-.36-5.36-4-8.75-7.26a2.87,2.87,0,0,0-2.34-.78c-2.51.32-5.91.76-9.32,1.17-5.2.62-9.48.92-9.55-6.86,0-1.89-6.72-5.55-10-5.23-10.07,1-16.4-4.52-23.71-9.88-9.47-6.93-18-15.88-32.09-14.47-5.45.55-11.31-4.45-17.19-6.25-15.72-4.82-32-8-47.21-14.19-21-8.52-42.71-14.57-64.8-12.51-10.87,1-14.32-19.34-13.12-25.34.4-2,2.1-3.68,3.89-5.8a2.8,2.8,0,0,0,.12-3.53c-4.11-5.4-3.53-11.1,3.16-16.62,1.6-1.32,2.5-5.05,1.92-7.19C10.2,365.59,8,355.76,3.68,347c-3.84-7.88-5.76-13.66,3.1-19a118.65,118.65,0,0,0,13.09-9.66c5.29-4.25,9.15-8.53,4.61-16.26-3.39-5.76-4.83-12.65-7.27-19-.72-1.86-1.54-4.77-2.88-5.14-13.53-3.71-6.4-11.25-3.7-18.11C14.76,249.4,24,240.62,21.81,228.05a80.88,80.88,0,0,0-4.09-14.79c-1.15-3.07-3.3-5.82-5.24-8.54s-3.79-6.42-6.61-8C.3,193.57-2,190.44,2.13,184.57c5.81-8.15,6.61-18,9.6-26.93,3.11-9.24,4-18.8,7.21-27.78,2-5.69,5.89-9.1,13.54-6.47,14,4.81,28.63,7.66,42.57,12.56,8.88,3.11,13.41.83,16.36-7.51,1.8-5.08,4-10,6.53-15.82a2.84,2.84,0,0,1,3.27-1.66c3,.72,6.29,1.55,9.63,2.15,15.62,2.8,31.26,6.86,47.06,1.21,2.36-.85,5.42-2.24,6.31-4.22,5.06-11.22,11.7-21.81,9.61-35.41-1.14-7.43-.53-15.95,10.2-17.5a2.87,2.87,0,0,1,3,1.53c5.42,10.58,16.48,11.84,27.23,15.88C230,80.52,244.3,90.93,258,101.09c8.7,6.44,15.23,15.85,22.6,24,6.58,7.3,14.14,10,23.95,7.14,2.1-.62,7.19,1.91,7.66,3.8,5.11,20.55,19.17,28.58,38.93,31.78,6.83,1.1,11.76.79,15.41-3.74,9.52-11.79,22.13-13.67,34.8-13.59a2.88,2.88,0,0,0,2.37-1.23c7-10.06,13.27-20.19,20.88-29.23,3.13-3.71,11-7.93,14-6.45,10,4.89,18.95-1.26,23.89-5,11.32-8.56,21.89-9.94,34.46-6.33a1.5,1.5,0,0,0,.78,0,2.79,2.79,0,0,0,1.95-2.79c-.44-13.75.54-14.37,23.58-21.92a2.83,2.83,0,0,0,1.87-2c2.63-11.55,9.55-17,22-15.6,23.25,2.54,44.63-2.88,65.55-12.5,14.62-6.72,30.52-10.92,44.51-18.66,9.55-5.27,17.33-14.21,24.93-22.41,8.27-8.92,12-8.71,17.81,2.42a188.25,188.25,0,0,0,12.12,20.33c1.49,2.14,5,3.51,7.82,4,6.54,1.08,11.09,2.09,8.38,11-6.65,21.77-12.28,43.86-18.63,65.74-3.28,11.31-.83,19.77,8,27.66,4.51,4.05,8,9.25,12.27,13.54s8.72,9.34,14.05,12.23c22.27,12.08,25.42,29.44,7.07,45.33-16.78,14.53-20.58,26.91-11.09,46.66C746.14,268.1,731,320.33,715.7,329.26ZM541.11,453l1.87-2.64c2.08-15.57,15.77-16.73,28.65-20.36L504,376.88c-.7,7.35,1-21-8.08-43.7-12.48-2-24.83-4.57-37.32-5.73-4.33-.4-10.88.1-10.08,8.35.16,1.69-2.76,4.1-4.75,5.48-3.86,2.67-11.5,5.63-11.2,4.84-3.47-1.28-7.34-4.25-10.33-3.54-10.2,2.46-20.09,6.19-30.08,9.51-.44.15-.64,1-.95,1.51l5.44,6L380.43,373.2q1.32,2.57,2.66,5.12l50.55-10.88c.48,9.58.69,17.16,1.32,24.7.29,3.46,1.48,6.84,2.12,10.28.85,4.59-.05,11.06,2.67,13.44,5.63,4.93,6.28,10.1,5.15,16.4-1.09,6.05-3.13,13.27-5.23,20.45,5.24,6.52,13.58,12.11,13.89,18.11,1.25,24.42,17.56,45.38,14.44,70.75-1.86,15.16,5.43,31-3.76,46-2.68,4.37-.4,9.24,5.14,12.72,7,4.41,12.71,10.83,19.27,16,5.2,4.12,10.83,7.71,18.45,13.07,0-8-2-14.56.36-17.49,8.75-10.64,16.71-23,33.2-23.42,11.86-.28,23.7-1.65,36.11-2.58-11.27-13.89-21.24-27.65-26.31-45.43-4.15-14.56,3.75-30.35-6.36-43.6-.58-.75.73-2.7.5-4-1.39-7.94-.89-17.24-5-23.41C534.66,462.09,535.42,458,541.11,453ZM187.55,356.89l4,1.63c1.62-3.38,3.92-6.6,4.71-10.15,2.24-10.06,6.45-13.92,15.79-10.4,12.63,4.76,21-.53,27.15-9.94,6.67-10.19,17.61-10.13,25.4-7.84,13,3.85,25.68,10.89,36.72,19,8.57,6.29,16.71,7.64,26.49,7.22A44.34,44.34,0,0,1,345.54,349c10.79,4.27,21.32,3.41,31.76.23,14.27-4.36,28-10.64,42.52-13.91,8.95-2,19.95,2.59,23.08-11.17.24-1.05,3.13-1.28,4.44-2.33,7.71-6.19,16.17-2.52,24.5-.65l1.29-3.35-9.29-6.6c2.49-18.2,5.28-38.65,8-58.63.75,2.94,1.76,6.85,3.52,13.7,3-9.7,4.56-17,7.51-23.73,2.36-5.34,3.1-10.16-1.83-13.38-3.69-2.4-8.62-2.89-13-4.25-2.36-.73-6.4-1-6.79-2.33-2.42-8.21-4.18-16.64-5.78-25.06-.4-2.12,1.56-5,.75-6.67-9.24-19.74-18.81-39.33-29.73-61.93-4.11,6.15-8.49,9.79-8.87,13.81-1.05,11.27-6.2,15.7-17.69,15.92-10.25.2-20.89-.15-28.66,10-5.21,6.81-13,11.7-22.49,5.07-1.54-1.07-3.91-1.14-5.93-1.32-17.26-1.47-30-8.37-33.74-26.95-.43-2.12-3.36-5.55-4.74-5.38-20.51,2.6-31.85-10.54-41.91-24.75-14.16-20-36.08-26.83-57-35.45-7-2.9-16.67.53-19.66-7.71-4.54,12.3-8.68,25.33-14.13,37.77-5.16,11.76-22.27,19.25-34.31,16.53-11.15-2.51-22.36-4.74-33.43-7.06-2.5,4.82-6.31,9.67-7.59,15.12-2.67,11.35-9.7,11.95-18.69,9.3C65,140.11,52.39,136.46,39.9,132.32c-13.95-4.63-17.71-1.49-15.49,13,.71,4.57,1.35,10-.45,13.93-4.58,10-10.55,19.31-16.55,29.95,9.42,0,12.57,4.12,12.2,12.35-.14,3.13,3.9,6.22,4.83,9.66a256.61,256.61,0,0,1,6.46,29.3c.34,2.32-3.56,5.16-5.27,7.91-3.71,6-7.26,12.06-10.12,16.84l20.06,37.19c-.57,4,.31,11.26-2.76,15.81s-10.54,5.87-15.29,9.6C11,333,4.42,338.45,12.24,348.09c2.63,3.24,3.13,8.27,4.37,12.55,1.76,6.08,3.3,12.22,5.7,21.2,17.48-8.48,33.5-15.8,49.06-24,6.6-3.48,9.71-2.48,11.07,5,7.5-1.38,14.83-3.61,22.21-3.8,5.12-.14,8.21-.2,9.81-5.92,1.86-6.6,6.14-9,13.38-6.18,7.92,3.09,16.35,4.85,24.48,7.45,9.75,3.12,14.64-1,17.74-10.12,1-3,6.18-7.26,8.09-6.66,3.43,1.09,6.68,5,8.41,8.52C188,349.14,187.31,353.26,187.55,356.89ZM508.42,89.33c-1.11,7-.25,13.44-3.06,16.39-4.22,4.45-10.08,5.59-17.55,2.22-4.49-2-12.26,2.83-18.38,5.06-3.28,1.19-6.11,3.58-9.31,5.07-3.52,1.63-7.61,2.29-10.8,4.37-5.58,3.65-10.73,6.68-16.94.14,7.59,17.71,15.51,34.56,23.71,51.27,4.32,8.84,11.73,16.14,6.13,28-2.59,5.5-.42,12.87,9.78,14,14,1.49,23.25,11.31,20.71,20.73-3.19,11.83-6.92,23.68-12,34.78-6.48,14.13-9.1,28.58-.1,41.29,4.72,6.66,14.59,10.34,22.83,13.61,5,2,10.81,3,16-4,3.27-4.44,12.06-6.28,18.51-6.61,19.73-1,39.52-.73,59.29-.9a12.29,12.29,0,0,1,4,.67c12.36,4.28,24.59,9,37.1,12.73,3.13.94,7.23-.65,10.72-1.64,19.4-5.53,38.56-16.65,58-1.22,2.94-5.62,30.86-57.58,25.38-70.88-10.49-25.44-9.86-27.6,9.29-46.6,1.95-1.93,4-3.72,6-5.66,10.27-10.25,8.2-23.86-5-30-9-4.23-15.95-10.07-20.89-18.83-2.28-4.05-5.93-7.56-9.58-10.58a31.42,31.42,0,0,1-9.5-34.26c2.05-6.1,2.85-12.61,4.49-18.87,2.08-7.93,4.21-15.86,6.77-23.64,2.22-6.76,5.07-13.31,6.45-16.87-4.26-3.21-7.73-4.65-9.31-7.24C704.3,30.49,698,18.87,691,6.55c-4.09,4.83-7,8.68-10.28,12-5.44,5.49-11,14.93-16.86,15.21-19.09.89-28.82,22.67-48.73,20-1.42-.19-3.2,2.36-4.82,3.63s-3.08,3.3-4.85,3.6c-14.17,2.36-28.35,4.72-42.6,6.35-5.36.61-11-1.24-16.41-1-7,.29-14,1.22-13.37,11.46.11,1.76-3.3,4.62-5.64,5.51C520.4,86,513.14,87.88,508.42,89.33ZM266.15,328.86c-7.39-3-17.32-4.75-22.41,5.35-5.47,10.86-16.05,12.84-25.94,15.67-13.76,3.93-18.67,19.3-19.88,15.34-15.14-.18-15.69-.72-19.57-19.07-.84.69-1.78,1.12-2.17,1.84-8.62,16-9.49,16.55-27.45,13a161,161,0,0,1-17.68-5.05c-4.59-1.47-7.73-2.07-11.05,3.39-2.3,3.77-8,6.24-12.66,7.6-7.08,2.06-14.63,2.5-21.88,4.08-1,.22-1.42,3.07-2.37,5.34l-8.22-8.62L16.67,390.5c-1.49,12.84-2.78,24-4.23,36.45,32.19-4.11,60,8.39,88.49,19.68,25.25,10,59,13.3,63.41,14.9,4.17,1.52,7.64,4.94,11.46,7.46,3.19,2.11,7,3.58,9.54,6.3,6.57,7.12,15.78,6.09,23.71,9,9.33,3.38,15.32,15.74,28.2,10.12.84-.37,3.08,3.28,5,4.46s6.22,3.09,6.71,2.47c6.41-8.05,11.2-1.9,16.55,1.29,2.21,1.32,6.1,3.26,7.27,2.36,8.76-6.72,16.67-.9,24.15,1.79,10,3.61,17,3.86,21.08-8,1.13-3.31,5.59-5.48,8.53-8.18,2.54,3,5,6,7.65,8.92,5.28,5.88,9.69,13.36,16.23,17,5.94,3.34,7.55,5.73,6.92,12.27-.58,6.07.63,12.58,2.36,18.52,1.66,5.71,5.6,10.74,7.47,16.42,2.18,6.58,3.75,12.92,11.11,16,2,.83,3.09,4.14,4.24,6.48,3.39,6.88,5.68,14.53,10.11,20.63,6.76,9.32,14.95,17.61,22.93,26.79,4.43.6,10.35-6,14.58,4,3.93,9.25,11.71,16.86,18.3,25.88,7.12-5.63,15.7-9,17.19-14.27,3.59-12.82,8.38-6.92,13.56-2.49l20.71-12.36c-10.6-9-20.4-18.39-31.33-26.24-13.52-9.71-15.32-14.23-8.94-29.85,1.77-4.33,4.68-10.53,3-13.51-4.48-7.8-2.52-15.24-2.23-23,.54-14.86-.74-29.3-8.45-42.78-2.57-4.49-1.75-10.8-3.49-15.93-2.14-6.32-3.73-14.54-8.43-17.89-8.64-6.17-3.63-41.68-11.53-46.66-1.7-1.08-3.51-3.62-3.5-5.48.05-9.23.8-18.46,1.09-27.7.2-6.37-2.41-8.67-9-6.58-8.13,2.56-16.43,5.31-24.83,6-5.86.51-15.54-.48-17.25-3.92-3.3-6.62-2.67-15.57,5.09-21.23.54-.4.69-1.35.54-1-11.48,0-23,.39-34.5-.25-3.31-.18-7.38-5.61-9.53-4.74C323.54,358.89,278.13,333.68,266.15,328.86Zm530.73,96.29c-4.32-.71-8.6-1.56-12.92-2.11-18-2.32-36.07-4.93-54.17-6.64-8.43-.79-12.38-3.89-12.18-12.64.5-21.75-.79-43-11.06-63.21-5.35-10.56-11.81-17.8-23.79-15.88-10.1,1.62-19.82,5.51-29.87,7.66-7.46,1.59-15.42,3.67-22.72,2.6-16.48-2.42-32.79-6.26-49-10.24-27.21-6.7-49.84,7-71.92,13.82v34.26c3.83,2.2,9.91,4.78,14.91,8.73,15,11.85,29.7,24.16,44.37,36.45,6,5,14.22,10.76,11.61,12.16-6.29,3.38-12.32,7.28-18.33,11.15-3.26,2.11-8.58,4.27-9,7a186.51,186.51,0,0,0-1.68,31.09c.1,5.57,2.25,11.11,3.46,16.66.84,3.82,3.18,8.06,2.25,11.38-5.5,19.76,1.08,37.76,9.8,54.17,6.13,11.53,17.28,20.38,27.2,31.56,2.43-3.51,6.28-6.56,6.6-10,1.46-15.19,12.6-18.58,24.36-22.11,3.57-1.07,6.57-4,11-6.86L693.57,593c-.58-6.43-1.39-9.65-1-12.73.46-3.84.83-9.87,3.1-10.91,6.62-3,14.77-6.77,21.21-5.32,14.06,3.16,26.93-1.74,40.25-2.89,2.9-.25,7.44-6,7.54-9.26.23-7.52,4.86-9.26,10.21-10.82a28.76,28.76,0,0,1,6.29-.87c2.23-6.39,3.26-11.1,5.43-15.22,5.7-10.81,15.22-20.85,17-32.15s-2.58-24.49-7.28-35.55c-2-4.64-4.73-8-3.35-13.31C794.43,438.14,795.43,432.17,796.88,425.15Z" fill="#f09187"/><path d="M187.55,356.89c-.24-3.63.49-7.75-1-10.77-1.73-3.51-5-7.43-8.41-8.52-1.91-.6-7.07,3.67-8.09,6.66-3.1,9.13-8,13.24-17.74,10.12-8.13-2.6-16.56-4.36-24.48-7.45-7.24-2.83-11.52-.42-13.38,6.18-1.6,5.72-4.69,5.78-9.81,5.92-7.38.19-14.71,2.42-22.21,3.8-1.36-7.47-4.47-8.47-11.07-5-15.56,8.2-31.58,15.52-49.06,24-2.4-9-3.94-15.12-5.7-21.2-1.24-4.28-1.74-9.31-4.37-12.55C4.42,338.45,11,333,17.52,327.86c4.75-3.73,12.21-5.06,15.29-9.6s2.19-11.77,2.76-15.81L15.51,265.26c2.86-4.78,6.41-10.85,10.12-16.84,1.71-2.75,5.61-5.59,5.27-7.91a256.61,256.61,0,0,0-6.46-29.3c-.93-3.44-5-6.53-4.83-9.66.37-8.23-2.78-12.33-12.2-12.35,6-10.64,12-20,16.55-29.95,1.8-3.92,1.16-9.36.45-13.93-2.22-14.49,1.54-17.63,15.49-13,12.49,4.14,25.14,7.79,37.75,11.51,9,2.65,16,2,18.69-9.3,1.28-5.45,5.09-10.3,7.59-15.12,11.07,2.32,22.28,4.55,33.43,7.06,12,2.72,29.15-4.77,34.31-16.53,5.45-12.44,9.59-25.47,14.13-37.77,3,8.24,12.63,4.81,19.66,7.71,20.94,8.62,42.86,15.46,57,35.45,10.06,14.21,21.4,27.35,41.91,24.75,1.38-.17,4.31,3.26,4.74,5.38,3.73,18.58,16.48,25.48,33.74,26.95,2,.18,4.39.25,5.93,1.32,9.46,6.63,17.28,1.74,22.49-5.07,7.77-10.19,18.41-9.84,28.66-10,11.49-.22,16.64-4.65,17.69-15.92.38-4,4.76-7.66,8.87-13.81,10.92,22.6,20.49,42.19,29.73,61.93.81,1.72-1.15,4.55-.75,6.67,1.6,8.42,3.36,16.85,5.78,25.06.39,1.33,4.43,1.6,6.79,2.33,4.38,1.36,9.31,1.85,13,4.25,4.93,3.22,4.19,8,1.83,13.38-2.95,6.71-16.56,50.46-19.05,68.66l9.29,6.6-1.29,3.35c-8.33-1.87-16.79-5.54-24.5.65-1.31,1.05-4.2,1.28-4.44,2.33-3.13,13.76-14.13,9.14-23.08,11.17-14.48,3.27-28.25,9.55-42.52,13.91-10.44,3.18-21,4-31.76-.23a44.34,44.34,0,0,0-17.68-2.53c-9.78.42-17.92-.93-26.49-7.22-11-8.12-23.69-15.16-36.72-19-7.79-2.29-18.73-2.35-25.4,7.84-6.17,9.41-14.52,14.7-27.15,9.94-9.34-3.52-13.55.34-15.79,10.4-.79,3.55-3.09,6.77-4.71,10.15Z" fill="#e95d4f"/><path d="M508.42,89.33c4.72-1.45,12-3.36,19-6,2.34-.89,5.75-3.75,5.64-5.51-.65-10.24,6.32-11.17,13.37-11.46,5.45-.23,11.05,1.62,16.41,1,14.25-1.63,28.43-4,42.6-6.35,1.77-.3,3.25-2.35,4.85-3.6s3.4-3.82,4.82-3.63c19.91,2.68,29.64-19.1,48.73-20,5.86-.28,11.42-9.72,16.86-15.21,3.33-3.36,6.19-7.21,10.28-12,7,12.32,13.35,23.94,20.25,35.23,1.58,2.59,5,4,9.31,7.24-1.38,3.56-4.23,10.11-6.45,16.87-2.56,7.78-4.69,15.71-6.77,23.64-1.64,6.26-2.44,12.77-4.49,18.87a31.42,31.42,0,0,0,9.5,34.26c3.65,3,7.3,6.53,9.58,10.58,4.94,8.76,11.91,14.6,20.89,18.83,13.15,6.18,15.22,19.79,5,30-2,1.94-4.05,3.73-6,5.66-19.15,19-19.78,21.16-9.29,46.6,5.48,13.3,5.8,24.8-5.43,35.87-3.67,3.61-3.78,10.85-5.51,16.41-5.4-2.1-11.5,13-14.44,18.6-19.47-15.43-38.63-4.31-58,1.22-3.49,1-7.59,2.58-10.72,1.64-12.51-3.77-24.74-8.45-37.1-12.73a12.29,12.29,0,0,0-4-.67c-19.77.17-39.56-.11-59.29.9-6.45.33-15.24,2.17-18.51,6.61-5.18,7-11,6-16,4-8.24-3.27-18.11-6.95-22.83-13.61-9-12.71-6.38-27.16.1-41.29,5.1-11.1,8.83-23,12-34.78,2.54-9.42-6.7-19.24-20.71-20.73-10.2-1.09-12.37-8.46-9.78-14,5.6-11.9-1.81-19.2-6.13-28-8.2-16.71-16.12-33.56-23.71-51.27,6.21,6.54,11.36,3.51,16.94-.14,3.19-2.08,7.28-2.74,10.8-4.37,3.2-1.49,6-3.88,9.31-5.07,6.12-2.23,13.89-7.08,18.38-5.06,7.47,3.37,13.33,2.23,17.55-2.22C508.17,102.77,507.31,96.32,508.42,89.33Z" fill="#e95d4f"/><path d="M336.57,353.64c2.15-.87,6.22,4.56,9.53,4.74,11.48.64,23,.25,34.5.25.15-.32,0,.63-.54,1-7.76,5.66-8.39,14.61-5.09,21.23,1.71,3.44,11.39,4.43,17.25,3.92,8.4-.73,16.7-3.48,24.83-6,6.63-2.09,9.24.21,9,6.58-.29,9.24-1,18.47-1.09,27.7,0,1.86,1.8,4.4,3.5,5.48,7.9,5,2.89,40.49,11.53,46.66,4.7,3.35,6.29,11.57,8.43,17.89,1.74,5.13.92,11.44,3.49,15.93,7.71,13.48,9,27.92,8.45,42.78-.29,7.79-2.25,15.23,2.23,23,1.72,3-1.19,9.18-3,13.51-6.38,15.62-4.58,20.14,8.94,29.85,10.93,7.85,20.73,17.26,31.33,26.24l-20.71,12.36c-5.18-4.43-10-10.33-13.56,2.49-1.49,5.31-10.07,8.64-17.19,14.27-6.59-9-14.37-16.63-18.3-25.88-4.23-9.94-10.15-3.38-14.58-4-8-9.18-16.17-17.47-22.93-26.79-4.43-6.1-6.72-13.75-10.11-20.63-1.15-2.34-2.26-5.65-4.24-6.48-7.36-3.09-8.93-9.43-11.11-16-1.87-5.68-5.81-10.71-7.47-16.42-1.73-5.94-2.94-12.45-2.36-18.52.63-6.54-1-8.93-6.92-12.27-6.54-3.67-10.95-11.15-16.23-17-2.62-2.91-5.11-5.94-7.65-8.92-2.94,2.7-7.4,4.87-8.53,8.18-4.05,11.82-11.05,11.57-21.08,8-7.48-2.69-15.39-8.51-24.15-1.79-1.17.9-5.06-1-7.27-2.36-5.35-3.19-10.14-9.34-16.55-1.29-.49.62-4.62-1.21-6.71-2.47s-4.2-4.83-5-4.46c-12.88,5.62-18.87-6.74-28.2-10.12-7.93-2.88-17.14-1.85-23.71-9-2.51-2.72-6.35-4.19-9.54-6.3-3.82-2.52-7.29-5.94-11.46-7.46-4.38-1.6-38.16-4.91-63.41-14.9C72.39,435.34,44.63,422.84,12.44,427c1.45-12.48,2.74-23.61,4.23-36.45l58.2-22.77,8.22,8.62c1-2.27,1.37-5.12,2.37-5.34,7.25-1.58,14.8-2,21.88-4.08,4.66-1.36,10.36-3.83,12.66-7.6,3.32-5.46,6.46-4.86,11.05-3.39A161,161,0,0,0,148.73,361c18,3.55,18.83,3,27.45-13,.39-.72,1.33-1.15,2.17-1.84,3.88,18.35,4.43,18.89,19.57,19.07,1.21,4,6.12-11.41,19.88-15.34,9.89-2.83,20.47-4.81,25.94-15.67,5.09-10.1,15-8.33,22.41-5.35C278.13,333.68,323.54,358.89,336.57,353.64Z" fill="#e95d4f"/><path d="M796.88,425.15c-1.45,7-2.45,13-4,18.84-1.38,5.34,1.38,8.67,3.35,13.31,4.7,11.06,9,24.2,7.28,35.55s-11.26,21.34-17,32.15c-2.17,4.12-3.2,8.83-5.43,15.22a28.76,28.76,0,0,0-6.29.87c-5.35,1.56-10,3.3-10.21,10.82-.1,3.3-4.64,9-7.54,9.26-13.32,1.15-26.19,6.05-40.25,2.89-6.44-1.45-14.59,2.28-21.21,5.32-2.27,1-2.64,7.07-3.1,10.91-.37,3.08.44,6.3,1,12.73L635.85,554.2c-4.44,2.84-7.44,5.79-11,6.86-11.76,3.53-22.9,6.92-24.36,22.11-.32,3.39-4.17,6.44-6.6,10-9.92-11.18-21.07-20-27.2-31.56-8.72-16.41-15.3-34.41-9.8-54.17.93-3.32-1.41-7.56-2.25-11.38-1.21-5.55-3.36-11.09-3.46-16.66a186.51,186.51,0,0,1,1.68-31.09c.4-2.73,5.72-4.89,9-7,6-3.87,12-7.77,18.33-11.15,4.45-2.39-67.06-55.14-70.89-57.34V338.51c22.08-6.82,44.71-20.52,71.92-13.82,16.19,4,32.5,7.82,49,10.24,7.3,1.07,15.26-1,22.72-2.6,10.05-2.15,19.77-6,29.87-7.66,12-1.92,18.44,5.32,23.79,15.88,10.27,20.25,11.56,41.46,11.06,63.21-.2,8.75,3.75,11.85,12.18,12.64,18.1,1.71,36.13,4.32,54.17,6.64C788.28,423.59,792.56,424.44,796.88,425.15Z" fill="#e95d4f"/><path d="M539.58,469.44c4.13,6.17,3.63,15.47,5,23.41.23,1.28-1.08,3.23-.5,4,10.11,13.25,2.21,29,6.36,43.6,5.07,17.78,15,31.54,26.31,45.43-12.41.93-24.25,2.3-36.11,2.58-16.49.39-24.45,12.78-33.2,23.42-2.4,2.93-.36,9.5-.36,17.49-7.62-5.36-13.25-9-18.45-13.07-6.56-5.19-12.27-11.61-19.27-16-5.54-3.48-7.82-8.35-5.14-12.72,9.19-15,1.9-30.81,3.76-46,3.12-25.37-13.19-46.33-14.44-70.75-.31-6-8.65-11.59-13.89-18.11,2.1-7.18,4.14-14.4,5.23-20.45,1.13-6.3.48-11.47-5.15-16.4-2.72-2.38-1.82-8.85-2.67-13.44-.64-3.44-1.83-6.82-2.12-10.28-.63-7.54-.84-15.12-1.32-24.7l-50.55,10.88q-1.33-2.55-2.66-5.12l16.24-13.64-5.44-6c.31-.52.51-1.36.95-1.51,10-3.32,19.88-7,30.08-9.51,3-.71,6.86,2.26,10.33,3.54-.3.79,7.34-2.17,11.2-4.84,2-1.38,4.91-3.79,4.75-5.48-.8-8.25,5.75-8.75,10.08-8.35,12.49,1.16,24.84,3.71,37.32,5.73,9.1,22.74,7.38,51.05,8.08,43.7L571.63,430C558.75,433.61,534.66,462.09,539.58,469.44Z" fill="#e95d4f"/></svg>